<?xml version="1.0" standalone="no"?>
<!DOCTYPE svg PUBLIC "-//W3C//DTD SVG 20010904//EN"
 "http://www.w3.org/TR/2001/REC-SVG-20010904/DTD/svg10.dtd">
<svg version="1.0" xmlns="http://www.w3.org/2000/svg"
 width="640.000000pt" height="640.000000pt" viewBox="0 0 640.000000 640.000000"
 preserveAspectRatio="xMidYMid meet">
<metadata>
Created by potrace 1.14, written by Peter Selinger 2001-2017
</metadata>
<g transform="translate(0.000000,640.000000) scale(0.100000,-0.100000)"
fill="#000000" stroke="none">
<path d="M2022 6118 c-7 -7 -12 -18 -12 -25 0 -8 -7 -16 -15 -19 -8 -4 -15
-12 -15 -20 0 -8 -8 -14 -17 -14 -14 0 -13 -3 5 -20 25 -24 30 -55 7 -46 -10
3 -15 -1 -15 -13 0 -30 -11 -50 -24 -45 -6 2 -20 -2 -30 -9 -16 -12 -14 -14
24 -26 48 -14 49 -35 1 -39 -25 -3 -31 -7 -26 -21 3 -10 -1 -24 -10 -31 -20
-17 -56 -90 -50 -100 3 -4 -2 -21 -10 -36 -8 -16 -18 -44 -21 -62 -3 -18 -10
-35 -15 -38 -5 -3 -6 -16 -3 -29 3 -14 -1 -33 -11 -48 -11 -17 -13 -27 -5 -32
8 -5 7 -11 -2 -22 -7 -8 -12 -25 -13 -36 0 -16 -6 -22 -24 -22 -13 0 -26 -6
-28 -12 -3 -8 4 -13 15 -13 30 0 46 -25 27 -43 -19 -20 -20 -41 0 -33 21 8 19
-10 -5 -32 -17 -15 -19 -24 -11 -44 7 -18 6 -29 -2 -38 -9 -10 -9 -14 1 -17
17 -7 15 -23 -4 -23 -11 0 -14 -6 -9 -21 10 -30 13 -50 14 -81 1 -21 6 -27 28
-30 43 -5 40 -31 -7 -52 -38 -17 -53 -36 -28 -36 6 0 -3 -13 -20 -29 -27 -24
-31 -32 -24 -52 5 -13 7 -29 5 -35 -2 -6 5 -14 17 -17 26 -7 26 -24 -2 -33
l-22 -7 22 -17 c12 -10 22 -23 22 -29 0 -5 12 -16 28 -23 15 -8 26 -21 26 -30
-1 -16 48 -42 59 -32 2 2 12 -5 22 -16 17 -19 17 -20 1 -20 -10 0 -24 -7 -32
-15 -21 -20 -19 -21 124 -35 1 0 2 -7 2 -15 0 -8 -9 -15 -19 -15 -29 0 -35
-19 -15 -42 10 -11 19 -27 19 -36 0 -12 7 -16 24 -14 16 3 22 -1 19 -10 -5
-15 -35 -25 -101 -33 -37 -5 -47 -10 -43 -21 9 -23 -5 -44 -29 -44 -30 0 -98
-29 -108 -46 -4 -8 -16 -14 -25 -14 -16 0 -17 -6 -8 -55 9 -48 13 -55 38 -60
36 -8 45 -38 19 -67 -20 -21 -81 -48 -112 -48 -20 0 -75 -58 -84 -89 -4 -13
-50 -66 -101 -118 -52 -52 -94 -98 -94 -102 0 -5 -36 -40 -80 -80 -61 -56 -81
-80 -86 -107 -3 -19 -10 -34 -15 -34 -5 0 -9 -8 -9 -17 0 -18 -27 -95 -60
-168 -49 -112 -60 -146 -69 -209 -6 -42 -7 -76 -1 -86 11 -21 13 -76 7 -208
-3 -77 -1 -106 9 -116 8 -8 13 -38 13 -79 0 -36 4 -74 10 -85 10 -19 27 -119
23 -139 -2 -6 7 -13 19 -15 21 -3 48 -59 49 -103 1 -11 14 -45 30 -75 17 -30
30 -63 30 -72 0 -9 6 -23 12 -30 45 -47 108 -157 108 -188 0 -7 7 -26 16 -43
30 -58 34 -67 34 -80 0 -8 18 -30 40 -51 22 -20 40 -41 40 -46 0 -16 84 -90
110 -97 26 -7 41 -23 77 -85 18 -32 19 -39 7 -55 -18 -24 -17 -33 1 -33 9 0
31 -16 51 -35 19 -19 38 -34 42 -34 33 5 41 -10 17 -35 -21 -21 -5 -28 58 -25
42 2 51 0 49 -12 -3 -18 61 -51 83 -43 8 4 15 1 15 -5 0 -6 -9 -11 -21 -11
-30 0 -23 -54 9 -58 12 -2 22 -7 22 -12 0 -5 14 -16 30 -25 25 -13 30 -13 30
-1 0 35 78 35 105 0 17 -23 25 -25 60 -21 35 5 45 2 73 -24 18 -17 32 -39 32
-49 0 -15 9 -21 40 -26 22 -4 43 -11 46 -15 3 -5 27 -9 54 -9 36 0 52 -5 62
-19 12 -16 38 -24 119 -34 14 -2 41 -15 60 -29 43 -33 166 -98 185 -98 8 0 14
-7 14 -15 0 -8 3 -15 8 -15 4 0 28 -19 52 -43 25 -23 62 -51 83 -60 20 -10 37
-22 37 -26 0 -5 11 -12 25 -15 16 -4 25 -13 25 -26 0 -13 7 -20 20 -20 12 0
36 -16 56 -35 38 -38 70 -45 89 -18 13 17 14 17 32 0 11 -9 22 -14 26 -11 12
12 55 -6 60 -26 5 -18 8 -19 31 -9 20 10 28 9 41 -5 9 -9 21 -16 26 -16 5 0 9
-10 9 -21 0 -17 3 -19 14 -10 21 18 76 2 76 -21 0 -14 5 -18 14 -15 10 4 13 1
9 -9 -4 -10 2 -14 22 -14 18 0 29 -6 32 -19 4 -14 19 -23 54 -30 69 -15 95
-14 132 6 18 9 56 21 86 28 58 11 59 13 112 109 12 22 22 61 23 90 2 27 8 52
14 54 7 2 12 9 12 16 0 7 11 19 25 26 16 9 22 17 16 23 -15 15 20 78 40 73 12
-3 18 5 22 31 3 18 18 48 32 65 15 18 23 37 20 47 -4 12 3 21 20 29 14 6 25
16 25 22 0 6 15 25 33 41 17 17 24 27 14 23 -37 -14 -15 14 30 37 56 29 62 42
28 57 -32 15 -32 30 -1 38 14 3 23 11 20 17 -2 7 9 21 26 32 16 11 30 25 30
32 0 6 8 18 18 25 11 7 24 23 30 35 7 12 26 24 43 28 33 8 65 55 41 63 -20 6
-14 22 13 32 28 11 32 31 10 50 -21 18 -19 41 5 47 13 3 20 14 20 29 0 15 6
24 15 24 8 0 15 4 15 8 0 5 14 7 30 4 34 -5 80 20 80 44 0 8 6 17 13 19 8 4
11 21 9 50 -3 28 0 45 7 45 6 0 11 7 11 15 0 8 7 15 14 15 21 0 69 67 62 85
-3 9 3 19 14 25 14 7 20 7 20 0 0 -5 9 -10 20 -10 14 0 18 5 13 16 -5 14 -1
16 20 12 32 -6 34 2 7 27 -26 24 -17 35 25 28 25 -4 35 -2 35 7 0 7 8 19 18
26 10 8 12 13 5 14 -7 0 -13 7 -13 16 0 12 7 14 29 9 30 -6 37 3 57 75 3 14
13 33 21 42 11 12 12 21 4 36 -9 17 -5 21 31 35 33 13 39 20 35 37 -3 11 -1
20 4 20 5 0 9 9 9 20 0 27 39 99 61 113 11 7 19 18 19 25 0 10 8 12 28 8 l27
-6 -29 25 c-34 31 -24 51 18 35 20 -7 28 -7 30 3 2 6 7 21 12 32 4 11 6 26 5
33 -1 6 3 12 9 12 5 0 10 8 10 19 0 10 7 24 15 31 8 7 15 17 15 23 0 6 10 21
22 35 22 22 22 24 6 36 -24 18 -23 32 4 50 21 15 21 17 6 32 -18 19 -14 85 8
120 16 23 19 75 9 117 -5 17 -2 45 5 68 12 35 11 40 -8 56 -27 24 -38 88 -17
97 8 3 15 14 15 25 0 14 9 21 32 26 l32 7 -23 19 c-20 17 -22 47 -1 34 4 -3
11 3 14 12 7 18 -9 33 -36 33 -13 0 -18 8 -18 31 0 22 -5 32 -20 36 -22 6 -27
29 -7 36 10 4 10 6 0 6 -7 1 -13 10 -13 21 0 16 7 20 33 21 25 0 28 2 12 8
-18 7 -18 8 -1 18 17 9 16 11 -8 17 -31 8 -35 26 -6 26 11 0 20 5 20 10 0 6
-4 10 -10 10 -14 0 -13 57 1 62 7 2 9 13 4 26 -3 13 -12 21 -18 19 -29 -10
-74 44 -68 81 1 6 -7 12 -18 12 -28 0 -52 11 -46 20 3 5 -27 19 -67 31 -70 21
-138 70 -138 99 0 18 17 10 35 -16 22 -34 31 -24 11 14 -28 53 -91 82 -98 46
-3 -15 -7 -13 -33 7 -16 14 -41 29 -55 36 -57 24 -82 33 -99 33 -15 0 -81 58
-81 71 0 3 8 6 18 6 9 -1 55 0 101 1 78 2 83 3 78 22 -5 18 -1 19 42 14 37 -4
41 -3 23 6 -26 11 -21 30 9 30 10 0 19 7 19 15 0 8 -4 15 -10 15 -5 0 -7 7 -4
15 5 11 -1 15 -18 15 -13 0 -31 9 -41 20 -13 15 -30 20 -74 21 -44 1 -51 3
-28 8 l30 6 -39 19 c-22 10 -52 19 -68 20 -17 1 -34 9 -39 17 -6 12 -24 17
-62 18 -29 0 -75 7 -101 15 -52 16 -76 12 -76 -11 0 -8 -5 -11 -10 -8 -6 4 -8
10 -5 15 6 9 -79 27 -105 22 -33 -6 -144 -1 -154 6 -6 5 -27 9 -45 11 -41 2
-43 3 -35 24 8 22 42 31 68 19 71 -33 113 -42 101 -21 -4 6 -13 8 -21 5 -7 -3
-16 -1 -19 4 -6 9 48 15 83 11 8 -1 21 4 31 13 10 9 41 16 76 18 33 2 60 8 60
13 1 23 18 35 51 35 19 0 34 5 34 10 0 22 -37 45 -73 47 -39 1 -69 26 -61 48
3 6 -7 17 -21 23 -14 6 -25 16 -25 21 0 6 -12 22 -27 36 -20 18 -35 24 -50 20
-16 -4 -23 -1 -23 10 0 10 -8 14 -30 11 -16 -2 -31 0 -32 5 -3 9 -125 26 -248
34 -92 7 -256 -9 -277 -27 -20 -16 -23 -7 -26 60 -1 33 -6 64 -10 68 -4 4 -5
34 -1 65 4 32 3 66 0 76 -7 17 -8 17 -17 1 -9 -16 -11 -16 -28 1 -11 11 -35
25 -55 32 -42 15 -45 24 -13 34 l22 8 -22 4 c-13 2 -23 11 -23 19 0 21 -17 17
-23 -6 -3 -11 -11 -20 -19 -19 -10 0 -10 2 0 6 6 2 12 12 12 20 0 9 -3 13 -6
10 -4 -3 -16 -1 -28 6 -28 15 -107 18 -125 3 -11 -8 -15 -8 -18 2 -3 6 -9 9
-15 6 -6 -4 -5 -10 3 -15 11 -8 10 -12 -5 -24 -10 -8 -15 -19 -10 -26 5 -9 2
-10 -12 -5 -33 13 -37 12 -50 -14 -9 -18 -9 -43 -2 -94 9 -64 8 -69 -12 -83
-18 -13 -19 -17 -7 -26 9 -7 18 -26 22 -44 5 -24 2 -34 -12 -42 -11 -6 -13
-11 -5 -11 15 0 70 -40 56 -40 -4 0 1 -7 12 -15 18 -14 18 -14 -11 -16 -24 -1
-25 -3 -7 -6 12 -2 22 -8 22 -13 0 -5 10 -11 23 -13 26 -5 -30 -11 -78 -8 -40
2 -77 -7 -70 -18 3 -5 27 -14 55 -21 27 -7 48 -16 45 -20 -3 -4 5 -19 16 -34
19 -25 20 -26 2 -32 -50 -16 -73 -27 -73 -35 0 -5 -6 -9 -12 -9 -24 -1 -81
-58 -75 -74 5 -12 0 -16 -17 -16 -13 0 -29 -6 -35 -14 -11 -13 -78 -21 -266
-32 -49 -3 -86 -2 -82 2 4 5 -12 16 -35 25 -24 9 -43 22 -43 28 0 7 -6 16 -14
20 -7 5 -10 14 -6 21 4 7 -1 13 -14 17 -30 8 -26 20 9 28 28 6 43 25 19 25 -6
0 -8 7 -5 17 4 10 -2 25 -15 39 l-21 22 36 17 c26 12 36 24 36 40 0 27 17 35
73 35 37 1 40 2 25 14 -21 15 -23 32 -5 39 7 3 4 6 -6 6 -10 1 -30 -5 -45 -12
-15 -8 -38 -11 -52 -7 l-25 6 22 8 c13 4 28 4 34 0 7 -4 9 -3 5 4 -3 6 -2 13
4 17 16 10 11 35 -7 35 -15 0 -14 2 3 15 11 8 14 15 7 15 -19 0 -16 37 5 50
16 9 15 11 -5 29 -30 25 -30 45 -1 35 21 -6 21 -6 5 11 -12 12 -26 15 -43 11
-19 -5 -25 -3 -22 6 3 7 20 15 39 19 l34 5 -48 24 c-45 23 -46 25 -26 36 21
11 20 11 -10 17 -17 4 -38 4 -48 0 -11 -4 -14 -3 -9 6 6 9 0 10 -21 5 -25 -7
-27 -6 -14 9 7 10 19 17 26 17 7 0 25 6 39 14 24 12 25 15 11 29 -8 9 -15 22
-15 30 0 20 -20 26 -47 14 -25 -11 -57 -2 -48 14 4 6 14 8 22 5 11 -5 13 -2 9
10 -5 13 0 15 27 9 l32 -6 -35 16 c-22 10 -36 12 -38 5 -6 -17 -20 -11 -27 11
-4 12 -12 18 -21 15 -15 -6 -20 19 -5 28 19 12 -15 56 -57 73 -32 14 -42 23
-40 38 2 15 10 20 31 18 38 -3 24 15 -18 23 -37 7 -42 13 -23 32 9 9 7 13 -6
18 -12 5 -14 10 -5 20 7 9 7 18 0 31 -6 10 -11 14 -11 9 0 -5 -7 -3 -15 4 -8
7 -15 8 -15 3 0 -11 -75 -9 -110 2 -31 10 -25 28 8 20 59 -14 92 -17 92 -7 0
6 -5 14 -10 17 -6 4 -8 11 -5 16 4 5 -19 9 -52 10 -51 1 -54 2 -25 9 18 4 42
6 52 3 10 -3 21 0 24 6 7 11 -6 13 -79 15 -23 1 -31 6 -33 24 -3 22 -26 30
-37 12 -12 -19 -26 -11 -16 9 9 16 16 17 61 8 56 -11 57 -11 62 18 3 17 -2 20
-35 18 -33 -2 -37 0 -27 12 10 12 9 15 -4 15 -9 0 -16 7 -16 16 0 28 -35 11
-40 -20 -6 -33 -27 -46 -36 -22 -4 11 -20 16 -53 17 l-46 1 37 12 c40 12 63
28 27 19 l-22 -6 19 26 c14 19 25 24 42 20 17 -4 22 -1 22 13 1 17 2 17 19 -3
22 -27 37 -29 45 -8 7 20 -20 32 -66 30 -21 -1 -38 2 -38 7 0 5 -4 7 -9 4 -5
-4 -8 2 -7 11 2 10 -4 23 -13 30 -14 10 -14 12 2 19 15 5 16 9 5 15 -10 7 -10
9 0 9 6 0 12 5 12 10 0 6 -9 10 -21 10 -14 0 -19 -5 -16 -14 3 -8 -1 -17 -9
-20 -22 -9 -24 -8 -18 8 3 8 -4 21 -16 29 -21 14 -21 16 -3 25 17 10 17 11 1
17 -10 4 -18 13 -18 20 0 9 -8 11 -22 7 -17 -4 -20 -2 -15 13 7 17 6 17 -18 1
-25 -17 -51 -13 -40 5 9 13 -9 11 -23 -3z m138 -308 c0 -5 -4 -10 -10 -10 -5
0 -10 5 -10 10 0 6 5 10 10 10 6 0 10 -4 10 -10z m120 -71 c0 -5 -7 -9 -15 -9
-15 0 -20 12 -9 23 8 8 24 -1 24 -14z m-195 -59 c3 -5 -1 -10 -9 -10 -9 0 -16
5 -16 10 0 6 4 10 9 10 6 0 13 -4 16 -10z m-20 -101 c10 -16 -1 -22 -26 -14
-17 6 -19 9 -8 16 19 12 26 11 34 -2z m415 1 c0 -5 -2 -10 -4 -10 -3 0 -8 5
-11 10 -3 6 -1 10 4 10 6 0 11 -4 11 -10z m28 -32 c4 -22 -30 -27 -50 -7 -16
17 -15 18 5 22 31 6 42 2 45 -15z m221 -349 c-16 -10 -23 -4 -14 10 3 6 11 8
17 5 6 -4 5 -9 -3 -15z m871 -38 c0 -5 -6 -12 -12 -14 -10 -4 -10 -8 0 -15 20
-14 -5 -20 -43 -11 -16 4 -23 7 -14 8 8 0 24 10 35 20 21 22 34 26 34 12z
m-1079 -71 c15 0 10 -20 -6 -26 -18 -7 -47 14 -39 28 3 5 13 7 21 4 8 -3 19
-6 24 -6z m224 -20 c3 -5 1 -10 -4 -10 -6 0 -11 5 -11 10 0 6 2 10 4 10 3 0 8
-4 11 -10z m1013 -231 c-2 -6 -8 -10 -13 -10 -5 0 -11 4 -13 10 -2 6 4 11 13
11 9 0 15 -5 13 -11z m-1972 -24 c-25 -19 -36 -19 -36 0 0 10 10 15 28 15 26
-1 26 -1 8 -15z m84 -65 c0 -5 -4 -10 -9 -10 -5 0 -16 -3 -25 -6 -9 -3 -16 -1
-16 4 0 9 16 17 43 21 4 0 7 -3 7 -9z m1723 -37 c-7 -2 -21 -2 -30 0 -10 3 -4
5 12 5 17 0 24 -2 18 -5z m-1481 -29 c-13 -9 -26 -13 -30 -9 -8 8 17 25 38 25
9 0 6 -6 -8 -16z m-32 -71 c0 -7 -12 -13 -26 -13 -19 0 -25 4 -21 15 4 8 2 17
-4 20 -5 4 -7 11 -4 16 8 11 54 -21 55 -38z m373 30 c-7 -2 -19 -2 -25 0 -7 3
-2 5 12 5 14 0 19 -2 13 -5z m-269 -68 c3 -10 -1 -15 -12 -15 -10 0 -23 -5
-28 -10 -6 -6 -18 -8 -27 -4 -13 5 -14 10 -6 25 12 23 64 26 73 4z m-234 -15
c0 -5 -4 -10 -10 -10 -5 0 -10 5 -10 10 0 6 5 10 10 10 6 0 10 -4 10 -10z m94
4 c28 -11 17 -24 -19 -24 -24 0 -35 5 -35 15 0 15 26 20 54 9z m2214 -99 c-18
-17 -71 -26 -88 -15 -10 6 -6 10 16 15 16 3 36 10 44 14 8 5 21 6 28 3 11 -4
11 -7 0 -17z m-784 -11 c13 -5 13 -8 3 -19 -16 -15 -88 -6 -95 13 -4 13 62 17
92 6z m-1484 -14 c0 -13 -28 -25 -38 -16 -3 4 0 11 8 16 20 13 30 12 30 0z
m843 -27 c-7 -2 -19 -2 -25 0 -7 3 -2 5 12 5 14 0 19 -2 13 -5z m-645 -44
c-18 -12 -95 -12 -82 0 10 11 63 19 82 12 11 -3 11 -5 0 -12z m2602 -9 c0 -5
-6 -10 -14 -10 -8 0 -18 5 -21 10 -3 6 3 10 14 10 12 0 21 -4 21 -10z m70 1
c0 -12 -20 -25 -27 -18 -7 7 6 27 18 27 5 0 9 -4 9 -9z m-216 -21 c-5 -5 -21
-6 -34 -3 -25 7 -25 7 5 13 34 7 43 4 29 -10z m36 10 c0 -5 -4 -10 -10 -10 -5
0 -10 5 -10 10 0 6 5 10 10 10 6 0 10 -4 10 -10z m195 -40 c3 -5 -1 -10 -9
-10 -9 0 -16 5 -16 10 0 6 4 10 9 10 6 0 13 -4 16 -10z m155 -460 c0 -5 -4
-10 -10 -10 -5 0 -10 5 -10 10 0 6 5 10 10 10 6 0 10 -4 10 -10z m-1040 -4 c0
-11 -19 -15 -25 -6 -3 5 1 10 9 10 9 0 16 -2 16 -4z m1245 -76 c3 -5 -1 -10
-9 -10 -8 0 -18 5 -21 10 -3 6 1 10 9 10 8 0 18 -4 21 -10z m-205 -100 c0 -5
-2 -10 -4 -10 -3 0 -8 5 -11 10 -3 6 -1 10 4 10 6 0 11 -4 11 -10z m-130 -10
c0 -5 -4 -10 -10 -10 -5 0 -10 5 -10 10 0 6 5 10 10 10 6 0 10 -4 10 -10z
m515 -210 c3 -5 1 -10 -4 -10 -6 0 -11 5 -11 10 0 6 2 10 4 10 3 0 8 -4 11
-10z m85 -24 c0 -3 -4 -8 -10 -11 -5 -3 -10 -1 -10 4 0 6 5 11 10 11 6 0 10
-2 10 -4z m-352 -1435 c3 -8 -1 -12 -9 -9 -7 2 -15 10 -17 17 -3 8 1 12 9 9 7
-2 15 -10 17 -17z"/>
<path d="M2400 5889 c0 -5 5 -7 10 -4 6 3 10 8 10 11 0 2 -4 4 -10 4 -5 0 -10
-5 -10 -11z"/>
<path d="M2824 5188 c-10 -15 1 -19 26 -10 l24 9 -22 5 c-12 4 -25 2 -28 -4z"/>
<path d="M2857 5094 c-8 -8 1 -24 14 -24 5 0 9 7 9 15 0 15 -12 20 -23 9z"/>
<path d="M2945 4920 c3 -5 8 -10 11 -10 2 0 4 5 4 10 0 6 -5 10 -11 10 -5 0
-7 -4 -4 -10z"/>
<path d="M3872 4859 c2 -6 7 -10 11 -10 4 1 14 1 22 1 8 0 15 5 15 10 0 6 -12
10 -26 10 -14 0 -24 -5 -22 -11z"/>
<path d="M1635 4160 c4 -6 11 -8 16 -5 14 9 11 15 -7 15 -8 0 -12 -5 -9 -10z"/>
<path d="M4875 1681 c-4 -8 1 -21 14 -34 16 -17 21 -18 21 -6 0 8 -6 23 -13
34 -11 13 -16 15 -22 6z"/>
</g>
</svg>
